<svg width="61.000000" height="18.000000" viewBox="0 0 61 18" fill="none" xmlns="http://www.w3.org/2000/svg" xmlns:xlink="http://www.w3.org/1999/xlink">
	<desc>
			Created with Pixso.
	</desc>
	<defs/>
	<path id="CoDe" d="M29.22 10.51C29.22 14.56 26.8 17.26 23.11 17.26C19.42 17.26 17.01 14.56 17.01 10.51C17.01 6.44 19.42 3.74 23.11 3.74C26.8 3.74 29.22 6.44 29.22 10.51ZM60.47 13.72C59.89 15.85 57.87 17.26 55.01 17.26C51.15 17.26 48.78 14.6 48.78 10.53C48.78 6.51 51.19 3.74 54.84 3.74C57.8 3.74 60.63 5.58 60.63 10.32L60.63 11.22L51.32 11.22C51.39 13.74 52.86 15.16 55.04 15.16C56.49 15.16 57.6 14.52 58.06 13.29L60.47 13.72ZM54.85 5.84C52.78 5.84 51.43 7.45 51.33 9.31L58.13 9.31C58.12 7.3 56.83 5.84 54.85 5.84ZM19.58 10.5C19.58 13.02 20.71 15.12 23.12 15.12C25.52 15.12 26.64 13.02 26.64 10.5C26.64 8 25.52 5.86 23.12 5.86C20.71 5.86 19.58 8 19.58 10.5Z" fill="#000000" fill-opacity="1.000000" fill-rule="evenodd"/>
	<path id="CoDe" d="M7.44 -0.7C11.13 -0.7 14.06 1.49 14.65 5.22L11.99 5.22C11.55 2.96 9.69 1.71 7.46 1.71C4.46 1.71 2.21 4.03 2.21 8.27C2.21 12.54 4.46 14.83 7.46 14.83C9.67 14.83 11.54 13.6 11.99 11.37L14.65 11.38C14.08 14.83 11.27 17.24 7.44 17.24C2.9 17.24 -0.41 13.85 -0.41 8.27C-0.41 2.69 2.92 -0.7 7.44 -0.7Z" fill="#38BFF2" fill-opacity="1.000000" fill-rule="evenodd"/>
	<path id="CoDe" d="M46.3 8.24C46.3 13.7 43.22 17 37.91 17L32.26 17L32.26 -0.46L38.09 -0.46C43.22 -0.46 46.3 2.82 46.3 8.24ZM34.89 1.84L34.89 14.69L37.76 14.69C41.74 14.69 43.71 12.38 43.71 8.24C43.71 4.13 41.74 1.84 37.93 1.84L34.89 1.84Z" fill="#F15525" fill-opacity="1.000000" fill-rule="evenodd"/>
</svg>
